<svg width="32" height="32" viewBox="0 0 32 32" fill="none" xmlns="http://www.w3.org/2000/svg">
  <defs>
    <linearGradient id="lockGradient" x1="0%" y1="0%" x2="100%" y2="100%">
      <stop offset="0%" style="stop-color:#3B82F6;stop-opacity:1" />
      <stop offset="100%" style="stop-color:#8B5CF6;stop-opacity:1" />
    </linearGradient>
  </defs>
  
  <!-- Background circle -->
  <circle cx="16" cy="16" r="14" fill="url(#lockGradient)" />
  
  <!-- Lock icon -->
  <path d="M16 8C14.3431 8 13 9.34315 13 11V13H12C11.4477 13 11 13.4477 11 14V22C11 22.5523 11.4477 23 12 23H20C20.5523 23 21 22.5523 21 22V14C21 13.4477 20.5523 13 20 13H19V11C19 9.34315 17.6569 8 16 8ZM17 13H15V11C15 10.4477 15.4477 10 16 10C16.5523 10 17 10.4477 17 11V13ZM16 17C16.5523 17 17 17.4477 17 18V19C17 19.5523 16.5523 20 16 20C15.4477 20 15 19.5523 15 19V18C15 17.4477 15.4477 17 16 17Z" fill="white"/>
</svg>
